<svg xmlns="http://www.w3.org/2000/svg" width="512" height="512" viewBox="0 0 512 512" version="1.1"><path d="M 181.385 186.948 C 177.168 187.955, 171.470 192.452, 170.041 195.900 C 168.511 199.596, 169.039 207.594, 170.791 207.236 C 173.397 206.704, 176.040 208.988, 175.483 211.290 C 175.057 213.052, 175.698 213.926, 178.649 215.603 L 182.350 217.706 182.608 227.145 C 182.850 235.950, 182.733 236.595, 180.875 236.734 C 177.975 236.953, 173.010 240.096, 170.727 243.159 C 169.417 244.917, 168.656 247.720, 168.484 251.429 C 168.203 257.461, 170.184 266.130, 171.396 264.169 C 171.793 263.526, 173.044 263, 174.176 263 C 175.909 263, 176.132 262.566, 175.593 260.250 C 172.848 248.465, 176.092 243.693, 187.087 243.342 C 194.555 243.104, 194.957 243.313, 197.889 248.950 C 199.826 252.674, 204.801 255.783, 210.151 256.614 C 212.746 257.016, 214.575 256.444, 218.272 254.075 C 225.039 249.738, 226.859 243.510, 223.351 236.700 C 221.834 233.756, 218.433 230.525, 216.833 230.507 C 216.467 230.503, 215.829 230.162, 215.417 229.750 C 214.259 228.593, 207.127 228.863, 204.684 230.157 C 203.483 230.794, 201.488 232.481, 200.251 233.907 C 198.531 235.891, 197.062 236.500, 194.001 236.501 L 190 236.502 190 227.264 L 190 218.027 193.584 216.529 C 195.555 215.706, 198.458 213.650, 200.036 211.962 C 202.780 209.024, 203.009 208.960, 205.327 210.478 C 207.626 211.985, 207.779 211.952, 208.333 209.835 C 208.976 207.377, 207.522 205, 205.378 205 C 204.465 205, 204 203.796, 204 201.434 C 204 191.186, 193.040 184.166, 181.385 186.948 M 181.408 201.500 C 179.891 203.816, 179.891 204.184, 181.408 206.500 C 183.722 210.032, 189.562 210.056, 191.163 206.541 C 193.899 200.537, 185.039 195.958, 181.408 201.500 M 79.257 239.437 C 73.693 242.514, 69.976 248.325, 70.022 253.872 C 70.057 258.104, 73.500 264.508, 77.133 267.099 C 79.800 269, 81.763 269.500, 86.572 269.500 C 93.875 269.500, 99.054 266.579, 102.089 260.750 C 103.422 258.188, 104.747 256.976, 106.270 256.923 C 107.497 256.881, 109.400 256.648, 110.500 256.405 C 111.600 256.162, 116.325 255.736, 121 255.457 C 125.675 255.178, 130.850 254.767, 132.500 254.544 C 134.150 254.320, 137.412 254.107, 139.750 254.069 C 143.912 254.001, 144 253.929, 144 250.564 L 144 247.127 139.250 247.579 C 136.637 247.827, 131.125 248.252, 127 248.523 C 113.615 249.405, 107.853 249.973, 107.009 250.495 C 105.711 251.297, 103 249.928, 103 248.470 C 103 246.435, 98.254 241.273, 94.799 239.550 C 91.149 237.729, 82.459 237.666, 79.257 239.437 M 123.720 280.250 C 123.310 282.878, 123.719 283.938, 125.856 285.789 C 133.181 292.133, 134.239 293, 134.646 293 C 134.889 293, 136.302 294.126, 137.787 295.503 L 140.487 298.006 142.221 295.753 C 144.582 292.686, 144.523 292.492, 140.250 289.307 C 138.188 287.769, 136.275 286.284, 136 286.006 C 135.725 285.728, 133.475 283.942, 131 282.037 C 128.525 280.132, 126.350 278.220, 126.167 277.787 C 125.406 275.992, 124.194 277.212, 123.720 280.250" stroke="none" fill="#2dad9a" fill-rule="evenodd"/><path d="M 127.959 158.403 C 126.056 159.057, 124.050 159.745, 123.500 159.932 C 121.385 160.649, 117.477 162.483, 117 162.982 C 114.435 165.666, 107.465 169.169, 103.890 169.571 C 98.013 170.232, 92.402 172.514, 87.912 176.069 C 85.877 177.681, 83.799 179, 83.293 179 C 82.788 179, 81.081 180.350, 79.500 182 C 77.919 183.650, 76.935 185, 77.313 185 C 77.691 185, 77.115 185.885, 76.034 186.966 C 73.210 189.790, 69.531 197.440, 67.017 205.720 C 65.819 209.663, 64.200 213.419, 63.419 214.067 C 62.639 214.715, 62 215.659, 62 216.164 C 62 216.670, 61.074 218.077, 59.941 219.292 C 57.228 222.203, 51.453 233.605, 50.046 238.830 C 48.810 243.419, 48.274 254.608, 49.244 255.577 C 49.584 255.917, 49.614 256.844, 49.310 257.635 C 48.710 259.199, 50.887 265.863, 54.330 272.998 C 56.613 277.729, 68.223 290, 70.416 290 C 71.122 290, 72.534 292.025, 73.554 294.500 C 74.575 296.975, 75.794 299, 76.264 299 C 76.734 299, 76.840 299.450, 76.500 300 C 76.160 300.550, 76.315 301, 76.843 301 C 77.372 301, 78.275 302.350, 78.850 304 C 79.425 305.650, 80.369 307, 80.948 307 C 81.527 307, 82 307.494, 82 308.099 C 82 309.051, 84.546 311.665, 89.607 315.909 C 93.871 319.485, 102.704 321.804, 112.592 321.943 C 116.435 321.997, 116.752 322.228, 117.817 325.750 C 119.298 330.654, 126.217 344.107, 129.411 348.295 C 132.973 352.965, 139.151 356, 145.095 356 L 150 356 150 326.801 L 150 297.602 152.981 294.551 C 173.278 273.779, 174.155 273.001, 176.601 273.615 C 177.931 273.948, 179.283 274.649, 179.607 275.172 C 180.082 275.942, 183.412 277.670, 186 278.491 C 191.031 280.087, 202.275 280.592, 207.500 279.458 C 209.700 278.981, 211.725 278.551, 212 278.503 C 213.028 278.324, 219.606 274.615, 222.479 272.595 C 226.443 269.807, 231.948 263.811, 231.977 262.250 C 231.990 261.563, 232.441 261, 232.981 261 C 233.520 261, 234.258 259.762, 234.619 258.250 C 234.980 256.738, 235.776 254.868, 236.388 254.096 C 237.020 253.298, 237.500 248.755, 237.500 243.564 C 237.500 233.884, 236 228.773, 231.289 222.406 C 230.030 220.704, 229 218.814, 229 218.205 C 229 217.597, 228.415 216.740, 227.700 216.300 C 225.198 214.761, 222.238 209.464, 221.538 205.274 C 220.707 200.299, 213.537 185, 212.036 185 C 211.466 185, 211 184.542, 211 183.982 C 211 182.580, 204.728 176.613, 200.520 174.012 C 198.611 172.833, 195.689 171.829, 194.025 171.782 C 192.361 171.734, 191 171.314, 191 170.848 C 191 170.382, 190.325 170, 189.500 170 C 188.675 170, 188 169.550, 188 169 C 188 168.450, 187.395 168, 186.655 168 C 185.915 168, 184.477 167.079, 183.458 165.954 C 181.377 163.654, 172.809 159.090, 169 158.251 C 164.709 157.307, 149.967 157.782, 148.609 158.909 C 147.898 159.500, 147.122 159.789, 146.885 159.552 C 145.055 157.721, 132.210 156.942, 127.959 158.403 M 130.267 164.033 C 124.761 165.148, 119.676 167.597, 116.710 170.563 C 114.605 172.668, 105.054 176, 101.126 176 C 99.040 176, 92 179.234, 92 180.192 C 92 180.637, 91.425 181, 90.723 181 C 89.406 181, 83 186.401, 83 187.510 C 83 187.853, 81.895 189.582, 80.545 191.352 C 77.456 195.402, 71.927 208.837, 73.060 209.537 C 73.527 209.825, 74.941 209.839, 76.204 209.568 C 77.467 209.296, 80.719 208.809, 83.431 208.484 C 89.648 207.741, 89.844 207.607, 92.077 202.559 C 94.379 197.355, 96.346 195.551, 101.744 193.696 C 107.489 191.722, 112.929 192.299, 117.846 195.403 C 126.454 200.837, 127.641 210.551, 120.861 220.062 C 119.980 221.297, 120.297 222.218, 122.374 224.458 C 123.818 226.017, 125 227.976, 125 228.813 C 125 229.649, 125.293 230.041, 125.650 229.683 C 126.008 229.325, 127.379 230.196, 128.698 231.619 C 130.695 233.774, 132.171 234.270, 137.547 234.593 L 144 234.981 144 200.049 C 144 180.837, 143.662 164.918, 143.250 164.674 C 141.447 163.608, 134.150 163.247, 130.267 164.033 M 152.250 163.747 L 150 164.139 150 197.538 C 150 226.815, 150.185 230.866, 151.500 230.362 C 152.325 230.045, 153 229.388, 153 228.901 C 153 227.942, 155.881 224.384, 160.250 219.947 C 161.762 218.411, 163 216.685, 163 216.112 C 163 215.539, 163.870 214.605, 164.932 214.036 C 165.995 213.467, 167.151 212.101, 167.500 211 C 168.416 208.115, 171.529 206.678, 174 208 C 176.714 209.452, 176.580 209.898, 172.042 214.500 C 169.873 216.700, 168.076 219.011, 168.049 219.635 C 168.022 220.259, 166.875 221.507, 165.500 222.408 C 164.125 223.309, 163 224.533, 163 225.129 C 163 225.725, 161.875 227.097, 160.500 228.179 C 159.125 229.260, 158 230.765, 158 231.523 C 158 232.281, 157.413 233.260, 156.695 233.700 C 155.977 234.140, 154.169 236.129, 152.676 238.119 L 149.962 241.738 150.231 264.979 L 150.500 288.221 157.750 281.307 C 161.738 277.504, 165 273.854, 165 273.196 C 165 272.538, 165.675 272, 166.500 272 C 167.325 272, 167.887 271.438, 167.750 270.750 C 167.612 270.063, 168.051 269.609, 168.724 269.741 C 169.397 269.874, 170.322 268.538, 170.779 266.773 C 171.352 264.562, 172.360 263.387, 174.023 262.995 C 176.039 262.519, 176.933 263.161, 179.467 266.909 C 183.296 272.570, 187.480 274.027, 200.520 274.242 C 212.546 274.439, 222.083 268.615, 227.722 257.628 C 230.550 252.118, 230.686 251.568, 231.442 242.566 C 231.741 239.002, 231.504 236.107, 230.848 235.316 C 230.247 234.592, 230.015 234, 230.333 234 C 231.681 234, 223.553 220.399, 220.343 217.282 C 217.590 214.608, 216.264 213.994, 214.168 214.420 C 212.580 214.744, 210.714 214.363, 209.557 213.481 C 206.786 211.365, 208.488 206.523, 212.029 206.447 C 215.485 206.373, 215.482 206.175, 211.862 196.764 C 208.739 188.645, 199.658 179.437, 193.205 177.846 C 188.394 176.659, 181.529 172.558, 177.984 168.752 C 176.893 167.581, 176 166.942, 176 167.332 C 176 167.722, 174.236 167.141, 172.080 166.041 C 168.292 164.108, 157.403 162.849, 152.250 163.747 M 85.477 214.090 C 76.725 215.198, 68.734 218.002, 66.243 220.839 C 63.726 223.705, 56.773 237.221, 56.128 240.500 C 55.912 241.600, 55.610 246.033, 55.457 250.352 C 55.131 259.514, 57.486 267.855, 62.261 274.449 C 65.997 279.609, 67.643 281.064, 72.936 283.885 C 76.271 285.663, 79.007 286.753, 79.015 286.309 C 79.024 285.864, 79.426 286.124, 79.909 286.888 C 80.958 288.543, 102.464 288.936, 104.071 287.329 C 104.704 286.696, 104.504 285.058, 103.500 282.654 C 102.350 279.902, 102.225 278.448, 103.012 276.977 C 103.594 275.890, 103.722 275, 103.295 275 C 101.808 275, 107.525 270.414, 110.566 269.167 C 114.279 267.645, 117.160 268.584, 121.673 272.790 C 124.606 275.523, 124.780 276.041, 123.974 279.624 C 123.120 283.417, 118.906 287.984, 116.250 287.995 C 114.138 288.003, 113.621 288.214, 109.817 290.615 C 103.849 294.383, 89.695 295.783, 81.750 293.392 C 79.176 292.617, 79.589 294.188, 83.475 299.963 C 90.143 309.872, 94.893 313.629, 102 314.614 C 108.221 315.477, 115.884 315.782, 116.476 315.191 C 116.792 314.874, 118.042 314.464, 119.252 314.279 C 120.462 314.095, 121.823 313.281, 122.276 312.472 C 122.729 311.662, 123.533 311, 124.064 311 C 124.594 311, 126.259 309.660, 127.764 308.023 C 130.181 305.392, 130.709 305.205, 132.296 306.417 C 135.032 308.505, 133.527 312.233, 128.396 316.078 C 125.688 318.107, 124.153 319.956, 124.477 320.800 C 124.769 321.562, 125.294 323.381, 125.642 324.843 C 125.991 326.304, 126.605 327.950, 127.008 328.500 C 127.914 329.738, 130.456 337.500, 129.956 337.500 C 129.587 337.500, 131.335 339.732, 136.161 345.423 C 137.624 347.149, 139.762 348.632, 140.911 348.718 C 142.847 348.864, 143.003 348.350, 143.041 341.688 C 143.064 337.735, 143.177 327.127, 143.291 318.115 C 143.448 305.782, 143.169 301.259, 142.163 299.822 C 141.042 298.222, 141.055 297.558, 142.245 295.707 C 143.373 293.952, 143.681 288.061, 143.749 266.956 L 143.833 240.413 137.667 240.277 C 134.275 240.203, 130.375 239.701, 129 239.161 C 125.779 237.899, 120 233.040, 120 231.595 C 120 230.981, 118.877 229.268, 117.503 227.787 C 115.309 225.420, 114.311 225.112, 109.253 225.237 C 102.193 225.413, 95.513 222.088, 92.500 216.899 C 90.539 213.522, 90.402 213.467, 85.477 214.090" stroke="none" fill="#4f66d3" fill-rule="evenodd"/><path d="M 86 176.500 C 84.136 177.875, 83.036 178.984, 83.556 178.964 C 84.560 178.926, 90.888 174.013, 89.944 174.005 C 89.639 174.002, 87.864 175.125, 86 176.500 M 262 238.038 L 262 285.075 271.250 284.788 L 280.500 284.500 280.760 237.750 L 281.020 191 271.510 191 L 262 191 262 238.038 M 320.520 192.212 C 320.275 192.921, 318.899 196.650, 317.462 200.500 C 294.786 261.243, 287 282.502, 287 283.670 C 287 284.795, 288.757 285.020, 295.750 284.789 L 304.500 284.500 307.860 274.750 L 311.219 265 329.493 265 L 347.767 265 351.260 274.750 L 354.753 284.500 363.495 284.791 C 372.168 285.079, 372.233 285.063, 371.660 282.791 C 371.342 281.531, 363.918 260.475, 355.162 236 L 339.243 191.500 330.104 191.212 C 323.340 190.999, 320.850 191.259, 320.520 192.212 M 322.956 229.688 C 319.519 240.035, 316.499 249.063, 316.246 249.750 C 315.892 250.711, 318.929 251, 329.393 251 C 336.877 251, 343 250.832, 343 250.626 C 343 250.420, 342.285 248.282, 341.412 245.876 C 340.538 243.469, 337.435 234.610, 334.515 226.188 L 329.207 210.877 322.956 229.688 M 48.232 251 C 48.232 252.925, 48.438 253.713, 48.689 252.750 C 48.941 251.787, 48.941 250.213, 48.689 249.250 C 48.438 248.287, 48.232 249.075, 48.232 251 M 143.232 265 C 143.232 266.925, 143.438 267.712, 143.689 266.750 C 143.941 265.788, 143.941 264.212, 143.689 263.250 C 143.438 262.288, 143.232 263.075, 143.232 265 M 143.286 277.500 C 143.294 280.250, 143.488 281.256, 143.718 279.736 C 143.947 278.216, 143.941 275.966, 143.704 274.736 C 143.467 273.506, 143.279 274.750, 143.286 277.500 M 143.252 286.500 C 143.263 288.700, 143.468 289.482, 143.707 288.238 C 143.946 286.994, 143.937 285.194, 143.687 284.238 C 143.437 283.282, 143.241 284.300, 143.252 286.500 M 177.030 299.521 C 169.312 303.007, 165.570 309.383, 166.193 317.987 C 166.695 324.936, 169.669 329.491, 175.401 332.095 C 182.431 335.287, 194 333.974, 194 329.984 C 194 325.940, 193.076 325.164, 189.551 326.246 C 185.234 327.571, 179.767 326.505, 177.387 323.875 C 175.980 322.321, 175.500 320.268, 175.500 315.808 C 175.500 310.444, 175.800 309.569, 178.408 307.325 C 180.775 305.290, 182.079 304.911, 185.408 305.290 C 187.659 305.547, 190.456 306.074, 191.624 306.462 C 193.437 307.064, 193.815 306.712, 194.204 304.065 C 194.473 302.233, 194.130 300.523, 193.367 299.890 C 191.115 298.021, 180.863 297.789, 177.030 299.521 M 320.604 300.155 C 318.365 303.351, 320.192 306.211, 324.216 305.808 C 328.466 305.383, 329.992 302.754, 327.553 300.059 C 325.150 297.404, 322.506 297.440, 320.604 300.155 M 349 303.448 L 349 308.896 345.975 307.841 C 337.751 304.975, 330 311.374, 330 321.030 C 330 328.980, 336.236 334.966, 343.084 333.589 C 344.963 333.212, 348.863 332.950, 351.750 333.009 L 357 333.115 357 315.557 L 357 298 353 298 L 349 298 349 303.448 M 403 303.361 L 403 308.722 399.029 307.662 C 388.629 304.886, 380.155 317.663, 385.517 328.033 C 388.291 333.397, 396.166 335.673, 400.777 332.443 C 402.023 331.571, 403 331.351, 403 331.943 C 403 332.524, 404.800 333, 407 333 L 411 333 411 315.500 L 411 298 407 298 L 403 298 403 303.361 M 201.062 308.827 C 191.672 313.863, 191.937 328.569, 201.490 332.560 C 211.771 336.856, 221.315 330.972, 221.328 320.329 C 221.341 310.124, 210.313 303.866, 201.062 308.827 M 226.250 307.796 L 223 308.127 223 320.563 L 223 333 227 333 L 231 333 231 325.071 C 231 319.197, 231.407 316.736, 232.571 315.571 C 236.287 311.856, 238 314.737, 238 324.700 L 238 333 242.500 333 L 247 333 247 324.535 C 247 317.401, 247.283 315.919, 248.804 315.105 C 252.317 313.225, 253.477 315.376, 253.853 324.463 L 254.205 333 258.103 333 L 262 333 262 324.649 C 262 314.538, 260.712 310.420, 256.941 308.470 C 253.313 306.593, 250.651 306.612, 246.925 308.539 C 244.246 309.924, 243.730 309.924, 241.752 308.539 C 239.297 306.819, 235.259 306.550, 233.034 307.958 C 232.227 308.468, 231.102 308.566, 230.534 308.176 C 229.965 307.785, 228.037 307.615, 226.250 307.796 M 303.683 307.650 C 303.326 308.008, 300.326 308.219, 297.016 308.120 L 291 307.939 291 320.470 L 291 333 295.460 333 L 299.919 333 300.210 324.868 C 300.457 317.949, 300.808 316.533, 302.562 315.371 C 304.311 314.213, 304.918 314.220, 306.551 315.414 C 308.114 316.557, 308.546 318.347, 308.844 324.911 L 309.212 333 313.106 333 L 317 333 317 324.401 C 317 314.692, 315.366 309.944, 311.405 308.139 C 308.654 306.885, 304.698 306.635, 303.683 307.650 M 364 308.333 C 361.016 309.373, 360.530 309.972, 360.705 312.398 C 360.969 316.069, 361.381 316.402, 363.957 315.023 C 366.525 313.649, 373.200 314.056, 373.712 315.619 C 373.938 316.307, 372.125 316.926, 369.007 317.225 C 362.375 317.863, 359 320.857, 359 326.102 C 359 331.412, 362.883 334.453, 368.500 333.541 C 370.700 333.185, 374.637 332.939, 377.250 332.996 L 382 333.099 382 324.115 C 382 313.067, 381.048 310.336, 376.538 308.452 C 372.389 306.718, 368.733 306.683, 364 308.333 M 420 308.752 C 413.493 312.002, 411.063 321.311, 415.026 327.810 C 418.359 333.277, 426.501 335.464, 433.906 332.883 C 436.560 331.958, 437.058 331.314, 436.805 329.133 C 436.508 326.571, 436.337 326.509, 430.481 326.834 C 425.397 327.117, 424.170 326.846, 422.576 325.084 L 420.690 323 429.345 323 L 438 323 438 319.968 C 438 309.715, 429.133 304.189, 420 308.752 M 443.277 308.973 C 436.739 312.959, 438.126 320.197, 445.984 323.099 C 452.092 325.356, 452.573 327.355, 446.870 326.780 C 444.467 326.538, 441.768 326.012, 440.872 325.610 C 439.596 325.038, 439.144 325.566, 438.778 328.056 C 438.363 330.887, 438.673 331.383, 441.624 332.616 C 450.138 336.174, 459 332.156, 459 324.740 C 459 321.747, 455.637 318.610, 450.750 317.046 C 448.688 316.385, 447 315.430, 447 314.922 C 447 313.724, 453.063 313.754, 454.974 314.963 C 456.713 316.063, 457.962 314.564, 457.985 311.348 C 458.015 307.151, 448.725 305.651, 443.277 308.973 M 264.159 318.398 C 264.437 326.870, 264.849 329.181, 266.387 330.878 C 269.063 333.831, 274.715 334.700, 278.206 332.696 C 279.743 331.815, 281 331.522, 281 332.047 C 281 332.571, 282.800 333, 285 333 L 289 333 289 320.500 L 289 308 284.500 308 L 280 308 280 316.378 C 280 325.356, 278.870 327.728, 275.156 326.549 C 272.708 325.773, 272.031 323.230, 272.014 314.750 L 272 308 267.909 308 L 263.818 308 264.159 318.398 M 320 320.500 L 320 333 324 333 L 328 333 328 320.500 L 328 308 324 308 L 320 308 320 320.500 M 204.491 315.383 C 202.254 317.019, 201.915 322.988, 203.922 325.407 C 205.443 327.238, 208.273 327.460, 211.066 325.965 C 212.470 325.213, 213 323.862, 213 321.036 C 213 314.923, 208.871 312.180, 204.491 315.383 M 340.491 315.383 C 338.254 317.019, 337.915 322.988, 339.922 325.407 C 342.899 328.993, 349 325.960, 349 320.894 C 349 317.723, 346.372 314, 344.134 314 C 343.171 314, 341.531 314.622, 340.491 315.383 M 395.313 314.786 C 394.659 315.201, 393.642 316.811, 393.052 318.363 C 390.799 324.290, 396.650 329.437, 401.082 325.425 C 405.790 321.165, 400.531 311.468, 395.313 314.786 M 422.031 315.942 C 420.993 317.881, 421.196 318, 425.538 318 C 429.387 318, 430.092 317.711, 429.815 316.250 C 429.302 313.544, 423.439 313.311, 422.031 315.942 M 368.750 322.689 C 366.744 323.214, 366.379 326.550, 368.250 327.262 C 370.497 328.117, 374 326.149, 374 324.032 C 374 322.011, 372.658 321.668, 368.750 322.689" stroke="none" fill="#194872" fill-rule="evenodd"/></svg>